<mxfile host="app.diagrams.net" modified="2023-06-02T14:59:04.944Z" agent="Mozilla/5.0 (Windows NT 10.0; Win64; x64) AppleWebKit/537.36 (KHTML, like Gecko) Chrome/113.0.0.0 Safari/537.36" version="21.3.7" etag="f4uX4QUr8WQhH8EPf7y6" type="github">
  <diagram name="PÃ¡gina-1" id="3xLLzSARRMGdOl_Q7MZ6">
    <mxGraphModel>
      <root>
        <mxCell id="0" />
        <mxCell id="1" parent="0" />
      </root>
    </mxGraphModel>
  </diagram>
</mxfile>
